<svg width="14" height="14" viewBox="0 0 14 14" fill="#ffffff" xmlns="http://www.w3.org/2000/svg">
<path d="M1.22631 10.3335C0.938139 9.83437 0.721845 9.31351 0.574219 8.78277C1.22253 8.45197 1.66648 7.77791 1.66648 7.00017C1.66648 6.22304 1.2232 5.54937 0.575685 5.21831C0.873499 4.14438 1.43905 3.14422 2.24316 2.32671C2.8538 2.72281 3.65957 2.77027 4.33315 2.38137C5.00673 1.99248 5.36851 1.27094 5.3308 0.544066C6.44087 0.25644 7.5898 0.266733 8.66873 0.545786C8.63167 1.27208 8.9934 1.99279 9.66647 2.38137C10.3401 2.77025 11.1458 2.72281 11.7564 2.32675C12.1422 2.71995 12.4851 3.16771 12.7733 3.66685C13.0615 4.16597 13.2778 4.68687 13.4254 5.21756C12.7771 5.54835 12.3331 6.22244 12.3331 7.00017C12.3331 7.77737 12.7764 8.45097 13.4239 8.78204C13.1261 9.85597 12.5606 10.8561 11.7565 11.6736C11.1458 11.2776 10.3401 11.2301 9.66647 11.619C8.99287 12.0078 8.63113 12.7294 8.6688 13.4563C7.5588 13.7439 6.40987 13.7336 5.33089 13.4546C5.36794 12.7282 5.00619 12.0076 4.33315 11.619C3.65959 11.2301 2.85386 11.2775 2.24323 11.6736C1.85745 11.2804 1.51448 10.8326 1.22631 10.3335ZM4.99981 10.4643C5.7274 10.8844 6.24993 11.5485 6.5002 12.3106C6.8324 12.3422 7.1668 12.3427 7.49907 12.3117C7.7492 11.5492 8.27187 10.8846 8.9998 10.4643C9.72773 10.044 10.5647 9.92371 11.3501 10.0883C11.5431 9.81604 11.7099 9.52617 11.8486 9.22271C11.3137 8.62491 10.9998 7.84031 10.9998 7.00017C10.9998 6.16004 11.3137 5.37551 11.8486 4.77771C11.7792 4.62704 11.7025 4.47885 11.6186 4.33351C11.5347 4.18817 11.4447 4.04769 11.3489 3.91232C10.5638 4.07655 9.7274 3.95613 8.9998 3.53607C8.2722 3.11601 7.74973 2.45183 7.4994 1.68974C7.16727 1.65813 6.8328 1.65768 6.5006 1.68865C6.2504 2.45118 5.72773 3.1158 4.99981 3.53607C4.27187 3.95635 3.43497 4.07667 2.64952 3.91206C2.45657 4.18431 2.28975 4.47415 2.15104 4.77762C2.68587 5.37545 2.99981 6.16004 2.99981 7.00017C2.99981 7.84031 2.68589 8.62484 2.15104 9.22264C2.22045 9.37331 2.29709 9.52151 2.38101 9.66684C2.46493 9.81217 2.55493 9.95264 2.65075 10.088C3.43585 9.92384 4.27225 10.0442 4.99981 10.4643ZM6.9998 9.00017C5.89527 9.00017 4.99981 8.10477 4.99981 7.00017C4.99981 5.89564 5.89527 5.00018 6.9998 5.00018C8.1044 5.00018 8.9998 5.89564 8.9998 7.00017C8.9998 8.10477 8.1044 9.00017 6.9998 9.00017ZM6.9998 7.66684C7.368 7.66684 7.66647 7.36837 7.66647 7.00017C7.66647 6.63197 7.368 6.33351 6.9998 6.33351C6.6316 6.33351 6.33313 6.63197 6.33313 7.00017C6.33313 7.36837 6.6316 7.66684 6.9998 7.66684Z" fill="#4F4F4F"/>
</svg>
