<svg width="34" height="29" viewBox="0 0 34 29" fill="none" xmlns="http://www.w3.org/2000/svg">
<path d="M6.5 0.5C3.18629 0.5 0.5 3.18629 0.5 6.5C0.5 8.72252 1.7078 10.6601 3.5 11.6969V24.5C3.5 26.9853 5.51473 29 8 29H26C28.4853 29 30.5 26.9853 30.5 24.5V11.6969C32.2922 10.6601 33.5 8.72252 33.5 6.5C33.5 3.18629 30.8137 0.5 27.5 0.5H6.5ZM9.5 26C8.67158 26 8 25.3284 8 24.5V9.68318L6.99988 9.32967C5.83265 8.91713 5 7.80387 5 6.5C5 4.84314 6.34314 3.5 8 3.5H27.5C29.1569 3.5 30.5 4.84314 30.5 6.5C30.5 7.80387 29.6673 8.91713 28.5002 9.32967L27.5 9.68318V24.5C27.5 25.3284 26.8284 26 26 26H9.5Z" fill="white"/>
</svg>
