<svg width="14" height="13" viewBox="0 0 14 13" fill="white" xmlns="http://www.w3.org/2000/svg">
<path d="M0.332031 13.0001V11.6667L1.66536 11.6666V2.2231C1.66536 1.90091 1.89578 1.62482 2.21277 1.56719L8.52713 0.41912C8.74446 0.3796 8.95273 0.52376 8.99226 0.741113C8.99653 0.76472 8.99866 0.788673 8.99866 0.812666V1.6666L11.6653 1.66671C12.0335 1.66671 12.332 1.96519 12.332 2.33338V11.6666L13.6653 11.6667V13.0001H10.9987V3.00005L8.99866 2.99993V13.0001H0.332031ZM7.66533 1.931L2.9987 2.77949V11.6667H7.66533V1.931ZM6.99866 6.3334V7.66673H5.66536V6.3334H6.99866Z" fill="#626262"/>
</svg>
